<?xml version="1.0" encoding="UTF-8" standalone="no"?>
<!-- Created with Inkscape (http://www.inkscape.org/) -->

<svg
   xmlns:dc="http://purl.org/dc/elements/1.1/"
   xmlns:cc="http://creativecommons.org/ns#"
   xmlns:rdf="http://www.w3.org/1999/02/22-rdf-syntax-ns#"
   xmlns:svg="http://www.w3.org/2000/svg"
   xmlns="http://www.w3.org/2000/svg"
   xmlns:xlink="http://www.w3.org/1999/xlink"
   xmlns:sodipodi="http://sodipodi.sourceforge.net/DTD/sodipodi-0.dtd"
   xmlns:inkscape="http://www.inkscape.org/namespaces/inkscape"
   width="90"
   height="90"
   id="svg2"
   version="1.1"
   inkscape:version="0.48.4 r9939"
   sodipodi:docname="schizo-icon2.svg"
   inkscape:export-filename="/home/aifu/Projects/schizo/docs/schizo-icon.png"
   inkscape:export-xdpi="179.556"
   inkscape:export-ydpi="179.556">
  <defs
     id="defs4102" />
  <sodipodi:namedview
     id="base"
     pagecolor="#ffffff"
     bordercolor="#666666"
     borderopacity="1.0"
     inkscape:pageopacity="0.0"
     inkscape:pageshadow="2"
     inkscape:zoom="3.959798"
     inkscape:cx="65.553759"
     inkscape:cy="54.604427"
     inkscape:document-units="px"
     inkscape:current-layer="layer1"
     showgrid="false"
     inkscape:window-width="1920"
     inkscape:window-height="1029"
     inkscape:window-x="0"
     inkscape:window-y="0"
     inkscape:window-maximized="1" />
  <metadata
     id="metadata7">
    <rdf:RDF>
      <cc:Work
         rdf:about="">
        <dc:format>image/svg+xml</dc:format>
        <dc:type
           rdf:resource="http://purl.org/dc/dcmitype/StillImage" />
        <dc:title></dc:title>
      </cc:Work>
    </rdf:RDF>
  </metadata>
  <g
     inkscape:label="Layer 1"
     inkscape:groupmode="layer"
     id="layer1"
     transform="translate(0,-962.36218)">
    <g
       id="use4140"
       transform="matrix(0,0.10578528,-0.10578528,0,89.78429,962.5779)"
       xlink:href="#y"
       x="0"
       y="0"
       width="1"
       height="1"
       style="fill:#ffffff;fill-opacity:1;stroke:#000000;stroke-width:7.96285105;stroke-miterlimit:4;stroke-opacity:1;stroke-dasharray:none">
      <path
         d="m 425,25 c 110.4,0 200,89.6 200,200 0,110.4 -89.6,200 -200,200 -110.4,0 -200,89.6 -200,200 0,110.4 89.6,200 200,200 C 645.8,825 825,645.8 825,425 825,204.2 645.8,25 425,25 z"
         id="path4083"
         inkscape:connector-curvature="0"
         sodipodi:nodetypes="csssssc"
         style="fill:#ffffff;fill-opacity:1;stroke:#000000;stroke-opacity:1" />
    </g>
    <g
       id="use4146"
       x="0"
       y="0"
       width="1"
       height="1"
       style="fill:#000001;fill-opacity:1;stroke:#000000;stroke-width:7.96285105;stroke-miterlimit:4;stroke-opacity:1;stroke-dasharray:none"
       transform="matrix(0,-0.10578528,0.10578528,0,-0.13336441,1052.4954)">
      <path
         d="m 425,25 c 110.4,0 200,89.6 200,200 0,110.4 -89.6,200 -200,200 -110.4,0 -200,89.6 -200,200 0,110.4 89.6,200 200,200 C 645.8,825 825,645.8 825,425 825,204.2 645.8,25 425,25 z"
         id="path4096"
         inkscape:connector-curvature="0"
         sodipodi:nodetypes="csssssc"
         style="fill:#000001;fill-opacity:1;stroke:#000000;stroke-opacity:1" />
    </g>
    <g
       style="font-size:40px;font-style:normal;font-weight:normal;line-height:125%;letter-spacing:0px;word-spacing:0px;fill:#000000;fill-opacity:1;stroke:none;font-family:Sans"
       id="text2989"
       transform="matrix(0.81075437,0,0,0.81075437,-159.17465,799.87774)">
      <path
         d="m 225.95424,243.96097 10.09766,26.97265 -3.8086,0 -6.13281,-16.17187 -7.53906,16.17187 -3.8086,0 9.58985,-20.97656 -1.44532,-3.86719 c -0.61198,-1.64059 -1.61459,-2.46091 -3.00781,-2.46093 l -1.875,0 0,-3.08594 2.28516,0.0391 c 2.9427,0.0391 4.8242,1.1654 5.64453,3.37891"
         id="path3948"
         inkscape:connector-curvature="0"
         style="fill:#000000;fill-opacity:1" />
    </g>
    <g
       transform="matrix(-0.81075437,0,0,-0.81075437,-122.98026,806.53751)"
       style="font-size:40px;font-style:normal;font-weight:normal;line-height:125%;letter-spacing:0px;word-spacing:0px;fill:#ffffff;fill-opacity:1;stroke:none;font-family:Sans"
       id="text2989-0">
      <path
         d="m -233.19168,-259.13956 10.09766,26.97266 -3.8086,0 -6.13281,-16.17188 -7.53906,16.17188 -3.8086,0 9.58985,-20.97656 -1.44532,-3.86719 c -0.61198,-1.6406 -1.61459,-2.46091 -3.00781,-2.46094 l -1.875,0 0,-3.08594 2.28516,0.0391 c 2.9427,0.0391 4.82421,1.16539 5.64453,3.3789"
         id="path3945"
         inkscape:connector-curvature="0"
         style="fill:#ffffff;fill-opacity:1" />
    </g>
  </g>
</svg>
