<?xml version="1.0" encoding="UTF-8" standalone="no"?>
<!-- Created with Inkscape (http://www.inkscape.org/) -->

<svg
   xmlns:dc="http://purl.org/dc/elements/1.1/"
   xmlns:cc="http://creativecommons.org/ns#"
   xmlns:rdf="http://www.w3.org/1999/02/22-rdf-syntax-ns#"
   xmlns:svg="http://www.w3.org/2000/svg"
   xmlns="http://www.w3.org/2000/svg"
   xmlns:sodipodi="http://sodipodi.sourceforge.net/DTD/sodipodi-0.dtd"
   xmlns:inkscape="http://www.inkscape.org/namespaces/inkscape"
   width="190"
   height="90"
   id="svg2"
   version="1.1"
   inkscape:version="0.48.4 r9939"
   sodipodi:docname="schizo-icon.svg">
  <defs
     id="defs4" />
  <sodipodi:namedview
     id="base"
     pagecolor="#ffffff"
     bordercolor="#666666"
     borderopacity="1.0"
     inkscape:pageopacity="0.0"
     inkscape:pageshadow="2"
     inkscape:zoom="3.959798"
     inkscape:cx="131.21769"
     inkscape:cy="94.713999"
     inkscape:document-units="px"
     inkscape:current-layer="layer1"
     showgrid="false"
     inkscape:window-width="1920"
     inkscape:window-height="1029"
     inkscape:window-x="0"
     inkscape:window-y="0"
     inkscape:window-maximized="1" />
  <metadata
     id="metadata7">
    <rdf:RDF>
      <cc:Work
         rdf:about="">
        <dc:format>image/svg+xml</dc:format>
        <dc:type
           rdf:resource="http://purl.org/dc/dcmitype/StillImage" />
        <dc:title></dc:title>
      </cc:Work>
    </rdf:RDF>
  </metadata>
  <g
     inkscape:label="Layer 1"
     inkscape:groupmode="layer"
     id="layer1"
     transform="translate(0,-962.36218)">
    <g
       id="g4020"
       transform="translate(-113.38962,617.70828)">
      <path
         d="m 159.18947,398.05277 c 1.96,0.88 3.76,1.36 5.76,1.36 5.48,0 9,-2.92 9,-7.24 0,-3.67999 -2.32,-5.88 -6.88,-6.48 l -3.12,-0.4 c -3,-0.4 -4.48,-1.56 -4.48,-3.52 0,-2.47999 2.12,-4.24 5.32,-4.24 2.08,0 3.76,0.8 4.6,2.04 0.84,1.24 0.6,2.68 2.16,2.68 0.92,0 1.48,-0.52 1.48,-1.44 0,-0.08 0,-0.12 0,-0.2 l -0.28,-4.08 c -0.08,-1.04 -0.2,-1.48 -1.6,-1.48 -0.88,0 -1.24,0.24 -1.24,1 -1.8,-0.72 -3.36,-1.16 -4.96,-1.16 -5.03999,0 -8.64,3.16001 -8.64,7.04 0,3.92 2.56001,5.8 7.76,6.52 l 2.88,0.4 c 2.48,0.36 3.8,1.64 3.8,3.68 0,2.4 -2.2,4.24 -5.68,4.24 -2.8,0 -4.84,-1.12 -5.68,-2.84 -0.72,-1.44 -0.52,-2.96 -2.16,-2.96 -1.2,0 -1.52,0.56 -1.52,1.68 0,0.12 0,0.24 0,0.4 l 0.24,4.52 c 0.08,1.4 0.56,2.04 1.68,2.04 1.08,0 1.44,-0.4 1.56,-1.56"
         style="font-size:40px;font-style:normal;font-variant:normal;font-weight:normal;font-stretch:normal;line-height:125%;letter-spacing:0px;word-spacing:0px;fill:#000000;fill-opacity:1;stroke:none;font-family:Courier 10 Pitch;-inkscape-font-specification:Courier 10 Pitch"
         id="path3951"
         inkscape:connector-curvature="0" />
      <path
         d="m 214.83447,395.97277 0,-14.48 c 0,-0.48 -0.36,-0.8 -1.12,-0.8 l -5.72,0 c -1.04,0 -1.56,0.44 -1.56,1.36 0,0.92 0.56,1.4 1.64,1.4 l 3.8,0 0,12.52 -5.96,0 c -1.08,0 -1.64,0.44 -1.64,1.36 0,0.92 0.52,1.4 1.56,1.4 l 15.16,0 c 1.16,0 1.6,-0.28 1.6,-1.4 0,-0.96 -0.48,-1.36 -1.48,-1.36 l -6.28,0 m -3.64,-20.92 c 0,1.6 0.4,1.92 2.04,1.92 1.88,0 2,-0.44 2,-2.48 0,-2.04 -0.2,-2.64 -2,-2.64 -1.8,0 -2.04,0.60001 -2.04,3.2"
         style="font-size:40px;font-style:normal;font-variant:normal;font-weight:normal;font-stretch:normal;line-height:125%;letter-spacing:0px;word-spacing:0px;fill:#000000;fill-opacity:1;stroke:none;font-family:Courier 10 Pitch;-inkscape-font-specification:Courier 10 Pitch"
         id="path3953"
         inkscape:connector-curvature="0" />
      <path
         d="m 232.85697,395.97277 10.72,-10.48 c 1.16,-1.12 1.76,-2.08 1.76,-2.84 0,-1.28 -0.92,-1.96 -2.76,-1.96 l -10.44,0 c -1.8,0 -2.72,0.44 -2.72,1.56 l 0,3.32 c 0,1.04 0.48,1.56 1.4,1.56 1.28,0 1.4,-0.84 1.4,-2.68 l 0,-1 9.32,0 -11.16,11.16 c -0.8,0.8 -1.4,1.4 -1.4,2.36 0,1.16 0.76,1.76 2.24,1.76 l 11.8,0 c 1.52,0 2.32,-0.32 2.32,-1.64 l 0,-3.24 c 0,-1.04 -0.44,-1.56 -1.36,-1.56 -1.28,0 -1.4,0.84 -1.4,2.68 l 0,1 -9.72,0"
         style="font-size:40px;font-style:normal;font-variant:normal;font-weight:normal;font-stretch:normal;line-height:125%;letter-spacing:0px;word-spacing:0px;fill:#000000;fill-opacity:1;stroke:none;font-family:Courier 10 Pitch;-inkscape-font-specification:Courier 10 Pitch"
         id="path3955"
         inkscape:connector-curvature="0" />
      <path
         d="m 271.35947,389.73277 c 0,-5.39999 -4.00001,-9.48 -10.2,-9.48 -6.19999,0 -10.24,4.04001 -10.24,9.48 0,5.44 4.04001,9.48 10.24,9.48 6.19999,0 10.2,-4.04 10.2,-9.48 m -10.2,6.76 c -4.04,0 -6.84,-2.88 -6.84,-6.76 0,-3.87999 2.8,-6.8 6.84,-6.8 4.04,0 6.84,2.92001 6.84,6.8 0,3.92 -2.8,6.76 -6.84,6.76"
         style="font-size:40px;font-style:normal;font-variant:normal;font-weight:normal;font-stretch:normal;line-height:125%;letter-spacing:0px;word-spacing:0px;fill:#000000;fill-opacity:1;stroke:none;font-family:Courier 10 Pitch;-inkscape-font-specification:Courier 10 Pitch"
         id="path3957"
         inkscape:connector-curvature="0" />
      <g
         transform="translate(-41.416254,136.37059)"
         id="text2989"
         style="font-size:40px;font-style:normal;font-weight:normal;line-height:125%;letter-spacing:0px;word-spacing:0px;fill:#ff0000;fill-opacity:1;stroke:none;font-family:Sans">
        <path
           inkscape:connector-curvature="0"
           id="path3948"
           d="m 225.95424,243.96097 10.09766,26.97265 -3.8086,0 -6.13281,-16.17187 -7.53906,16.17187 -3.8086,0 9.58985,-20.97656 -1.44532,-3.86719 c -0.61198,-1.64059 -1.61459,-2.46091 -3.00781,-2.46093 l -1.875,0 0,-3.08594 2.28516,0.0391 c 2.9427,0.0391 4.8242,1.1654 5.64453,3.37891" />
      </g>
      <g
         id="text2989-0"
         style="font-size:40px;font-style:normal;font-weight:normal;line-height:125%;letter-spacing:0px;word-spacing:0px;fill:#0000ff;fill-opacity:1;stroke:none;font-family:Sans"
         transform="matrix(-1,0,0,-1,-41.416254,136.37059)">
        <path
           inkscape:connector-curvature="0"
           id="path3945"
           d="m -233.19168,-259.13956 10.09766,26.97266 -3.8086,0 -6.13281,-16.17188 -7.53906,16.17188 -3.8086,0 9.58985,-20.97656 -1.44532,-3.86719 c -0.61198,-1.6406 -1.61459,-2.46091 -3.00781,-2.46094 l -1.875,0 0,-3.08594 2.28516,0.0391 c 2.9427,0.0391 4.82421,1.16539 5.64453,3.3789" />
      </g>
      <path
         sodipodi:nodetypes="ccccc"
         inkscape:connector-curvature="0"
         id="path3078-2"
         d="m 208.057,431.63968 c 50.68215,-0.0217 69.47326,-14.14926 91.38525,-41.85714 -22.37373,-27.70788 -41.16484,-41.83548 -91.25898,-41.8712 -50.09413,-0.0357 -68.88524,14.09189 -91.38524,41.85715 21.78572,27.76525 40.57683,41.89285 91.25897,41.87119 z"
         style="fill:none;stroke:#0000ff;stroke-width:5;stroke-linecap:round;stroke-miterlimit:10;stroke-opacity:1;stroke-dasharray:none" />
    </g>
  </g>
</svg>
